<?xml version="1.0" encoding="UTF-8" standalone="no"?>
<!-- Generator: Gravit.io -->

<svg
   style="isolation:isolate"
   viewBox="0 0 48 48"
   width="48pt"
   height="48pt"
   version="1.1"
   id="svg16"
   sodipodi:docname="audacity.svg"
   inkscape:version="1.2.2 (b0a8486541, 2022-12-01)"
   xmlns:inkscape="http://www.inkscape.org/namespaces/inkscape"
   xmlns:sodipodi="http://sodipodi.sourceforge.net/DTD/sodipodi-0.dtd"
   xmlns="http://www.w3.org/2000/svg"
   xmlns:svg="http://www.w3.org/2000/svg">
  <defs
     id="defs20" />
  <sodipodi:namedview
     id="namedview18"
     pagecolor="#ffffff"
     bordercolor="#000000"
     borderopacity="0.25"
     inkscape:showpageshadow="2"
     inkscape:pageopacity="0.0"
     inkscape:pagecheckerboard="0"
     inkscape:deskcolor="#d1d1d1"
     inkscape:document-units="pt"
     showgrid="false"
     inkscape:zoom="7.0012302"
     inkscape:cx="-22.138966"
     inkscape:cy="18.211085"
     inkscape:window-width="1920"
     inkscape:window-height="1056"
     inkscape:window-x="0"
     inkscape:window-y="0"
     inkscape:window-maximized="1"
     inkscape:current-layer="svg16" />
  <linearGradient
     id="_lgradient_5"
     x1="0"
     y1="0.5"
     x2="1"
     y2="0.5"
     gradientTransform="matrix(16.760051,0,0,11.946175,15.619974,30.914348)"
     gradientUnits="userSpaceOnUse">
    <stop
       offset="0%"
       stop-opacity="1"
       style="stop-color:rgb(255,224,49)"
       id="stop2" />
    <stop
       offset="98.69565217391305%"
       stop-opacity="1"
       style="stop-color:rgb(252,82,82)"
       id="stop4" />
  </linearGradient>
  <path
     d="m 17.500001,41.090092 -0.320365,0.784049 -1.559663,-0.632297 0.311936,-0.784044 3.549285,-8.801557 2.976005,7.03956 2.107653,-4.560964 1.441632,3.734762 2.925422,-6.955253 3.186771,9.594034 0.26135,0.800906 -1.593384,0.531128 -0.269782,-0.800906 -1.770427,-5.336574 -2.807394,6.677041 -1.51751,-3.920233 -2.031776,4.400779 -2.874839,-6.786644 z"
     fill="url(#_lgradient_5)"
     id="path7"
     style="fill:url(#_lgradient_5);stroke-width:0.84306" />
  <linearGradient
     id="_lgradient_6"
     x1="0"
     y1="0.5"
     x2="0.9074880558539661"
     y2="0.9200778838291643"
     gradientTransform="matrix(39,0,0,32.273216,4.5,13.799368)"
     gradientUnits="userSpaceOnUse">
    <stop
       offset="0%"
       stop-opacity="1"
       style="stop-color:rgb(0,196,255)"
       id="stop9" />
    <stop
       offset="83.88839793817618%"
       stop-opacity="1"
       style="stop-color:rgb(0,114,255)"
       id="stop11" />
  </linearGradient>
  <path
     d="m 34.974124,31.505335 c 0.133206,0.798379 0.827885,1.407912 1.663359,1.407912 v 0 0 c 0.927366,0 1.812584,0.370948 2.470168,1.028531 0.649159,0.649159 1.020106,1.542806 1.020106,2.470172 v 2.790529 c 0,0.92737 -0.370947,1.812583 -1.020106,2.470172 -0.657584,0.657588 -1.542802,1.028531 -2.470168,1.028531 v 0 c -0.930737,0 -1.686119,0.755386 -1.686119,1.686123 v 0 c 0,0.929898 0.755382,1.686124 1.686119,1.686124 v 0 c 1.821013,0 3.566148,-0.725033 4.856033,-2.014918 C 42.774967,42.768626 43.5,41.023491 43.5,39.202479 V 36.41195 c 0,-1.821013 -0.725033,-3.566147 -2.006484,-4.856032 -0.88353,-0.88437 -1.981194,-1.502336 -3.169909,-1.804151 v -3.304798 c 0,-0.06746 -0.0085,-0.143323 -0.01687,-0.210767 -0.126466,-1.036965 -0.337228,-2.057067 -0.623869,-3.060311 -0.236058,-0.851489 -0.556423,-1.677691 -0.952662,-2.470168 -0.354085,-0.70817 -0.775615,-1.382621 -1.247727,-2.006484 -0.463671,-0.598574 -0.977941,-1.146564 -1.542789,-1.64397 -0.564852,-0.497406 -1.188716,-0.935798 -1.837875,-1.315175 -0.699741,-0.396239 -1.433203,-0.733463 -2.200389,-1.003243 -0.868351,-0.303502 -1.761997,-0.522697 -2.664072,-0.666018 -1.087547,-0.168612 -2.183527,-0.261349 -3.279507,-0.269779 -0.977949,-0.0084 -1.955902,0.03372 -2.933851,0.126459 -0.80934,0.07588 -1.610246,0.202334 -2.402723,0.387808 -0.77562,0.168612 -1.525943,0.404669 -2.267834,0.699741 -0.64073,0.252918 -1.264594,0.56485 -1.854737,0.935797 -0.640726,0.396239 -1.239299,0.868353 -1.77886,1.399482 -0.522696,0.514266 -0.986379,1.087548 -1.382617,1.711412 -0.4131,0.657588 -0.758755,1.357329 -1.011674,2.090791 -0.28664,0.817768 -0.4974057,1.660832 -0.6238651,2.520754 -0.00844,0.08429 -0.016862,0.160181 -0.016862,0.244488 v 1.686123 0 c 0,0.929894 0.7553821,1.686119 1.6861221,1.686119 v 0 c 0.930742,0 1.686124,-0.756225 1.686124,-1.686119 v 0 -1.559663 c 0.09274,-0.607006 0.244487,-1.197149 0.446821,-1.770431 0.177042,-0.497403 0.404667,-0.961086 0.682879,-1.399478 0.25292,-0.413101 0.556419,-0.784049 0.902075,-1.121272 0.362519,-0.354085 0.758757,-0.67445 1.197149,-0.944228 0.413097,-0.26135 0.851489,-0.480546 1.306743,-0.657588 0.58171,-0.227627 1.171854,-0.4131 1.77886,-0.54799 0.649154,-0.151751 1.306742,-0.252918 1.97276,-0.320363 0.859921,-0.08431 1.719843,-0.118029 2.588198,-0.109598 0.927367,0.0084 1.863167,0.08431 2.7821,0.227626 0.708175,0.109598 1.399483,0.286641 2.082362,0.522698 0.564852,0.202334 1.104409,0.446823 1.627108,0.741892 0.463683,0.269783 0.893642,0.573281 1.298314,0.927367 0.396239,0.345656 0.750324,0.733466 1.070689,1.146566 0.354085,0.463684 0.657584,0.952658 0.918933,1.466924 0.303503,0.607005 0.54799,1.239302 0.733466,1.896886 0.227625,0.800911 0.396239,1.618679 0.505837,2.45331 v 3.262645 1.407912 0 0 0 0.278211 z M 11.370947,42.701182 v 0 c 0.930741,0 1.686123,0.755386 1.686123,1.686123 v 0 c 0,0.929898 -0.755382,1.686124 -1.686123,1.686124 v 0 c -1.8210121,0 -3.5745785,-0.725033 -4.8560315,-2.014918 C 5.2250322,42.768626 4.5,41.023491 4.5,39.202479 V 36.41195 C 4.5,34.590937 5.2250322,32.845803 6.5149155,31.555918 7.7963685,30.266033 9.5499349,29.541 11.370947,29.541 v 0 c 0.930741,0 1.686123,0.755386 1.686123,1.686124 v 0 c 0,0.929897 -0.755382,1.686123 -1.686123,1.686123 v 0 c -0.927367,0 -1.8210121,0.370948 -2.4785993,1.028531 -0.6491569,0.649159 -1.020104,1.542806 -1.020104,2.470172 v 2.790529 c 0,0.92737 0.3709471,1.812583 1.020104,2.470172 0.6575872,0.657588 1.5512323,1.028531 2.4785993,1.028531 z m 5.994165,0.202338 v 0 c 0,0.929893 -1.133075,1.686119 -2.529183,1.686119 v 0 c -0.465371,0 -0.843064,-0.377689 -0.843064,-0.843059 v -0.84306 -10.192611 -0.84306 c 0,-0.46537 0.377693,-0.843059 0.843064,-0.843059 v 0 c 1.396108,0 2.529183,0.755382 2.529183,1.686119 v 0 z m 16.642023,0 v 0.84306 c 0,0.46537 -0.377693,0.843059 -0.843064,0.843059 v 0 c -1.396108,0 -2.529183,-0.756226 -2.529183,-1.686119 v 0 -10.192611 0 c 0,-0.930737 1.133075,-1.686119 2.529183,-1.686119 v 0 c 0.465371,0 0.843064,0.377689 0.843064,0.843059 v 0.84306 z"
     fill-rule="evenodd"
     fill="url(#_lgradient_6)"
     id="path14"
     style="fill:url(#_lgradient_6);stroke-width:0.84306" />
</svg>
