<?xml version="1.0" encoding="UTF-8" standalone="no"?>
<!-- Generator: Gravit.io -->

<svg
   style="isolation:isolate"
   viewBox="0 0 48 48"
   width="48pt"
   height="48pt"
   version="1.1"
   id="svg695"
   sodipodi:docname="kdenlive.svg"
   inkscape:version="1.2.2 (b0a8486541, 2022-12-01)"
   xmlns:inkscape="http://www.inkscape.org/namespaces/inkscape"
   xmlns:sodipodi="http://sodipodi.sourceforge.net/DTD/sodipodi-0.dtd"
   xmlns="http://www.w3.org/2000/svg"
   xmlns:svg="http://www.w3.org/2000/svg">
  <defs
     id="defs699" />
  <sodipodi:namedview
     id="namedview697"
     pagecolor="#ffffff"
     bordercolor="#000000"
     borderopacity="0.25"
     inkscape:showpageshadow="2"
     inkscape:pageopacity="0.0"
     inkscape:pagecheckerboard="0"
     inkscape:deskcolor="#d1d1d1"
     inkscape:document-units="pt"
     showgrid="false"
     inkscape:zoom="7.2761954"
     inkscape:cx="2.3363858"
     inkscape:cy="53.668157"
     inkscape:window-width="1920"
     inkscape:window-height="1056"
     inkscape:window-x="0"
     inkscape:window-y="0"
     inkscape:window-maximized="1"
     inkscape:current-layer="svg695" />
  <linearGradient
     id="_lgradient_47"
     x1="0"
     y1="0.5"
     x2="0.9074880558539661"
     y2="0.9200778838291643"
     gradientTransform="matrix(10.173913,0,0,15.26087,28.239131,18.869565)"
     gradientUnits="userSpaceOnUse">
    <stop
       offset="0%"
       stop-opacity="1"
       style="stop-color:rgb(0,196,255)"
       id="stop660" />
    <stop
       offset="83.88839793817618%"
       stop-opacity="1"
       style="stop-color:rgb(0,114,255)"
       id="stop662" />
  </linearGradient>
  <path
     d="m 29.118326,18.870413 c -0.416283,0.02544 -0.864783,0.437478 -0.863935,0.893609 l -0.01526,13.471956 c 0,0.608739 0.796109,1.137783 1.251392,0.776609 l 8.579152,-6.75887 c 0.458674,-0.356934 0.456978,-1.194587 0,-1.553217 L 29.50663,18.987413 c -0.114456,-0.08902 -0.24926,-0.12463 -0.388304,-0.117 z"
     fill="url(#_lgradient_47)"
     id="path665"
     style="fill:url(#_lgradient_47);stroke-width:0.847826" />
  <linearGradient
     id="_lgradient_48"
     x1="0"
     y1="0.5"
     x2="1"
     y2="0.5"
     gradientTransform="matrix(12.717391,0,0,17.804348,8.7391304,17.173913)"
     gradientUnits="userSpaceOnUse">
    <stop
       offset="0%"
       stop-opacity="1"
       style="stop-color:rgb(178,254,250)"
       id="stop667" />
    <stop
       offset="98.26086956521739%"
       stop-opacity="1"
       style="stop-color:rgb(14,210,247)"
       id="stop669" />
  </linearGradient>
  <path
     d="m 18.913043,17.173913 v 0.847826 h 2.543479 v -0.847826 z m -2.543478,3.391304 v 0.847826 h 5.086957 v -0.847826 z m -4.23913,3.391305 v 0.847826 h 9.326087 v -0.847826 z m -3.3913046,3.391304 v 0.847826 h 10.0679346 2.649457 v -0.847826 z m 3.3913046,3.391304 v 0.847827 h 9.326087 V 30.73913 Z m 4.23913,3.391305 v 0.847826 h 5.086957 v -0.847826 z"
     fill-rule="evenodd"
     fill="url(#_lgradient_48)"
     id="path672"
     style="fill:url(#_lgradient_48);stroke-width:0.847826" />
  <linearGradient
     id="_lgradient_49"
     x1="0"
     y1="0.5"
     x2="1"
     y2="0.5"
     gradientTransform="matrix(1.6956522,0,0,28.826087,24,12.086956)"
     gradientUnits="userSpaceOnUse">
    <stop
       offset="0%"
       stop-opacity="1"
       style="stop-color:rgb(255,153,102)"
       id="stop674" />
    <stop
       offset="98.26086956521739%"
       stop-opacity="1"
       style="stop-color:rgb(255,94,98)"
       id="stop676" />
  </linearGradient>
  <path
     d="m 24,12.086956 0.03307,28.826087 h 1.662587 V 12.086956 Z"
     fill="url(#_lgradient_49)"
     id="path679"
     style="fill:url(#_lgradient_49);stroke-width:0.847826" />
  <linearGradient
     id="_lgradient_50"
     x1="0"
     y1="0.5"
     x2="0.9074880558539661"
     y2="0.9200778838291643"
     gradientTransform="matrix(10.173913,0,0,6.7826087,19.76087,11.23913)"
     gradientUnits="userSpaceOnUse">
    <stop
       offset="0%"
       stop-opacity="1"
       style="stop-color:rgb(255,65,108)"
       id="stop681" />
    <stop
       offset="84.34782608695653%"
       stop-opacity="1"
       style="stop-color:rgb(255,75,43)"
       id="stop683" />
  </linearGradient>
  <path
     d="M 29.934783,11.23913 H 24.847826 19.76087 l 2.543478,3.391305 2.543478,3.391304 2.543478,-3.391304 z"
     fill="url(#_lgradient_50)"
     id="path686"
     style="fill:url(#_lgradient_50);stroke-width:0.847826" />
  <linearGradient
     id="_lgradient_51"
     x1="0"
     y1="0.5"
     x2="1"
     y2="0.5"
     gradientTransform="matrix(39,0,0,39,4.5,7)"
     gradientUnits="userSpaceOnUse">
    <stop
       offset="0%"
       stop-opacity="1"
       style="stop-color:rgb(88,0,226)"
       id="stop688" />
    <stop
       offset="100%"
       stop-opacity="1"
       style="stop-color:rgb(255,0,230)"
       id="stop690" />
  </linearGradient>
  <path
     d="m 7.8913043,16.792391 v 0 c 0,0.936 -0.7596521,1.695652 -1.6956521,1.695652 v 0 C 5.2596522,18.488043 4.5,17.728391 4.5,16.792391 v 0 -5.553261 C 4.5,8.8991304 6.3991304,7 8.7391304,7 H 39.26087 C 41.60087,7 43.5,8.8991304 43.5,11.23913 v 16.108696 0 c 0,0.936 -0.759652,1.695652 -1.695652,1.695652 v 0 c -0.936,0 -1.695652,-0.759652 -1.695652,-1.695652 v 0 -14.413043 c 0,-1.404 -1.139479,-2.543479 -2.543479,-2.543479 H 10.434783 c -1.404,0 -2.5434787,1.139479 -2.5434787,2.543479 z M 40.108696,36.207609 v 0 c 0,-0.936 0.759652,-1.695652 1.695652,-1.695652 v 0 c 0.936,0 1.695652,0.759652 1.695652,1.695652 v 0 5.553261 C 43.5,44.10087 41.60087,46 39.26087,46 H 8.7391304 C 6.3991304,46 4.5,44.10087 4.5,41.76087 v -16.803913 0 c 0,-0.936 0.7596522,-1.695653 1.6956522,-1.695653 v 0 c 0.936,0 1.6956521,0.759653 1.6956521,1.695653 v 0 15.10826 c 0,1.404 1.1394787,2.543479 2.5434787,2.543479 h 27.130434 c 1.404,0 2.543479,-1.139479 2.543479,-2.543479 z"
     fill-rule="evenodd"
     fill="url(#_lgradient_51)"
     id="path693"
     style="fill:url(#_lgradient_51);stroke-width:0.847826" />
</svg>
