<?xml version="1.0" encoding="UTF-8" standalone="no"?>
<!-- Generator: Gravit.io -->

<svg
   style="isolation:isolate"
   viewBox="0 0 48 48"
   width="48pt"
   height="48pt"
   version="1.1"
   id="svg9"
   sodipodi:docname="php.svg"
   inkscape:export-filename="php3.png"
   inkscape:export-xdpi="96"
   inkscape:export-ydpi="96"
   xmlns:inkscape="http://www.inkscape.org/namespaces/inkscape"
   xmlns:sodipodi="http://sodipodi.sourceforge.net/DTD/sodipodi-0.dtd"
   xmlns:xlink="http://www.w3.org/1999/xlink"
   xmlns="http://www.w3.org/2000/svg"
   xmlns:svg="http://www.w3.org/2000/svg">
  <sodipodi:namedview
     id="namedview14"
     pagecolor="#ffffff"
     bordercolor="#000000"
     borderopacity="0.25"
     inkscape:showpageshadow="2"
     inkscape:pageopacity="0.0"
     inkscape:pagecheckerboard="0"
     inkscape:deskcolor="#d1d1d1"
     inkscape:document-units="pt"
     showgrid="false" />
  <defs
     id="defs13">
    <linearGradient
       id="linearGradient4360">
      <stop
         style="stop-color:#5500d4;stop-opacity:1"
         offset="0"
         id="stop4356" />
      <stop
         style="stop-color:#8787de;stop-opacity:1"
         offset="1"
         id="stop4358" />
    </linearGradient>
    <linearGradient
       xlink:href="#linearGradient4360"
       id="linearGradient4362"
       x1="-12.647664"
       y1="32.931747"
       x2="18.636013"
       y2="31.562046"
       gradientUnits="userSpaceOnUse"
       gradientTransform="rotate(-40,1.7992619,-0.90315131)" />
  </defs>
  <linearGradient
     id="_lgradient_3"
     x1="0.95182407"
     y1="0.10511363"
     x2="0.06594222"
     y2="0.88474542"
     gradientTransform="matrix(39.009,0,0,44,4.496,2)"
     gradientUnits="userSpaceOnUse">
    <stop
       offset="0%"
       stop-opacity="1"
       style="stop-color:#8787de;stop-opacity:1"
       id="stop2" />
    <stop
       offset="1"
       stop-opacity="1"
       style="stop-color:#5500d4;stop-opacity:1"
       id="stop4" />
  </linearGradient>
  <path
     id="path7"
     style="fill:url(#_lgradient_3)"
     d="m 9.4277344,1.9995117 c -2.7219703,0 -4.9321289,2.2101586 -4.9321289,4.9321289 V 27.143555 c 0,1.155989 0.8324339,2.094726 1.8574218,2.094726 1.024989,0 1.8574219,-0.938737 1.8574219,-2.094726 V 9.1494141 c 0,-1.6339824 1.325998,-2.9589844 2.9589848,-2.9589844 h 22.11914 c 0.161,0 0.315891,-0.023323 0.462891,-0.070312 0.147,0.047 0.30382,0.070312 0.46582,0.070312 h 2.613281 c 1.632989,0 2.958985,1.325002 2.958985,2.9589844 v 3.3266599 c 0,1.156989 0.832433,2.094727 1.857422,2.094727 1.024989,0 1.857422,-0.937738 1.857422,-2.094727 V 6.9316406 c 0,-2.7219703 -2.210162,-4.9321289 -4.932129,-4.9321289 h -4.354981 c -0.162,0 -0.31882,0.023323 -0.46582,0.070312 -0.147,-0.047 -0.301891,-0.070312 -0.462891,-0.070312 z M 41.646973,19.810547 c -1.024989,0 -1.857422,0.937748 -1.857422,2.094726 v 16.945313 c 0,1.633978 -1.325996,2.958984 -2.958985,2.958984 H 22.142578 c -1.024989,0 -1.857422,0.937738 -1.857422,2.094727 0,1.155989 0.832433,2.096191 1.857422,2.096191 h 16.429688 c 2.721967,0 4.932129,-2.210151 4.932129,-4.932129 V 21.905273 c 0,-1.156978 -0.832433,-2.094726 -1.857422,-2.094726 z M 6.3530273,33.429199 c -1.0249879,0 -1.8574218,0.937738 -1.8574218,2.094727 v 5.544433 c 0,2.721978 2.2101586,4.932129 4.9321289,4.932129 h 4.3549806 c 1.025989,0 1.858887,-0.940202 1.858887,-2.096191 0,-1.156989 -0.832898,-2.094727 -1.858887,-2.094727 h -2.613281 c -1.6329868,0 -2.9589848,-1.325006 -2.9589848,-2.958984 v -3.32666 c 0,-1.156989 -0.8324329,-2.094727 -1.8574219,-2.094727 z" />
  <path
     id="ellipse4299"
     style="isolation:isolate;fill:#afafe9;stroke:#007bff;stroke-width:0;stroke-linejoin:bevel;stroke-dasharray:none;paint-order:markers fill stroke"
     d="m 29.226563,12.796875 a 8.7926167,13.747944 50.350188 0 0 -10.385743,4.35791 8.7926167,13.747944 50.350188 0 0 -4.885254,15.530274 8.7926167,13.747944 50.350188 0 0 16.22461,-2.088868 8.7926167,13.747944 50.350188 0 0 4.883789,-15.530273 8.7926167,13.747944 50.350188 0 0 -5.837402,-2.269043 z m -0.572754,1.123535 c 0.05746,2.98e-4 0.114047,0.0017 0.171386,0.0059 0.317066,0.02315 0.667209,0.169134 0.981446,0.316406 0.08737,-0.02076 0.175313,-0.04 0.263672,-0.05566 0.132208,-0.02476 0.265646,-0.03329 0.399902,-0.03809 0.392352,0.0069 0.728484,0.162303 1.03125,0.398437 0.203068,0.158113 0.359653,0.36101 0.481933,0.585938 -0.0016,-0.0034 -0.01627,-0.02811 0.02637,0.03955 0.0175,0.02816 0.03198,0.05758 0.04834,0.08643 l 0.0015,0.0015 c -0.0012,-0.0025 -0.0062,-0.01101 0.0029,0.0015 0.08971,0.124113 0.163555,0.258699 0.237305,0.392578 0.0219,0.05152 0.05456,0.08894 0.08642,0.133301 0.187356,0.249243 0.306508,0.53669 0.411622,0.827637 0.03752,0.118286 0.06826,0.238189 0.09521,0.358886 0.04426,0.05471 0.08779,0.107889 0.143555,0.171387 0.24956,0.310759 0.497345,0.625726 0.651856,0.997559 0.03883,0.09859 0.08685,0.193947 0.115722,0.295898 0.0912,0.322109 0.129938,0.639834 0.117188,0.971192 -9e-6,0.20037 4.3e-5,0.40168 0,0.60205 -6.6e-5,0.264361 3e-4,0.52812 0,0.792481 -4e-4,0.310707 -8.19e-4,0.620939 -0.0029,0.93164 -0.0028,0.355891 -0.0032,0.712586 -0.02637,1.067872 -0.0324,0.395708 -0.08587,0.791774 -0.210938,1.17041 -0.181674,0.485518 -0.425081,0.936568 -0.745605,1.346191 -0.392971,0.508519 -0.830674,0.982281 -1.398926,1.299316 -0.365553,0.206145 -0.742431,0.392198 -1.135254,0.540528 -0.175706,0.181879 -0.347502,0.365542 -0.525879,0.544922 -0.350913,0.348373 -0.699602,0.701514 -1.098633,0.996093 -0.343363,0.263463 -0.695797,0.515813 -1.02539,0.796875 -0.312614,0.242429 -0.601833,0.511095 -0.905274,0.764649 -0.419672,0.353448 -0.857059,0.688509 -1.353515,0.928711 -0.404224,0.190887 -0.814761,0.373401 -1.249512,0.483398 -0.147637,0.110174 -0.297551,0.218243 -0.452637,0.317871 -0.485059,0.287121 -0.992683,0.537084 -1.536621,0.692871 -0.373378,0.09326 -0.753935,0.166412 -1.139648,0.175782 -0.12226,0.08454 -0.255445,0.152253 -0.392578,0.213867 -0.09825,0.07298 -0.202773,0.137593 -0.312012,0.191894 -0.0127,0.01025 -0.02512,0.02086 -0.03809,0.03076 -1.337563,2.24838 -3.644391,0.945554 -2.419922,-1.31543 -0.02161,-0.01134 -0.01992,-0.01009 -0.128906,-0.06738 -0.455706,-0.271543 -0.871325,-0.602737 -1.144043,-1.067871 -0.09929,-0.155636 -0.197771,-0.311468 -0.294434,-0.46875 -0.199437,-0.124024 -0.385519,-0.267958 -0.552246,-0.439454 -0.199133,-0.103117 -0.395932,-0.210537 -0.585937,-0.329589 -0.17802,-0.09086 -0.350708,-0.192836 -0.508301,-0.320801 -0.124362,-0.100982 -0.253349,-0.200443 -0.350098,-0.328125 -0.0718,-0.09475 -0.134381,-0.194835 -0.194824,-0.297363 -1.058179,-0.15825 -1.292613,-1.409883 -0.121582,-2.484375 0.085,-0.352661 0.194465,-0.697693 0.386719,-1.010743 0.199262,-0.337973 0.415512,-0.666133 0.65918,-0.974121 0.09422,-0.147187 0.192035,-0.292767 0.295898,-0.433594 0.256661,-0.394048 0.542497,-0.771082 0.895019,-1.085449 0.147905,-0.12456 0.300001,-0.242347 0.458497,-0.353027 0.425709,-0.394125 0.879349,-0.757266 1.409179,-1.006348 0.673795,-0.345379 1.364441,-0.6558 2.056641,-0.962402 0.526618,-0.227853 1.063306,-0.433122 1.583496,-0.675293 0.414259,-0.192128 0.819722,-0.400755 1.22168,-0.616699 0.221809,-0.289209 0.446191,-0.576733 0.681152,-0.855469 0.207584,-0.236572 0.433626,-0.455645 0.676758,-0.654785 0.04193,-0.118391 0.08269,-0.237464 0.128906,-0.354492 0.09348,-0.243208 0.188353,-0.5544 0.350098,-0.758789 0.261687,-0.33069 0.508567,-0.517936 0.902343,-0.637207 0.05466,-0.01251 0.109315,-0.02474 0.164063,-0.03662 0.0065,-0.0097 0.01254,-0.01963 0.01904,-0.0293 0.44583,-0.689663 0.869409,-1.306086 1.653809,-1.655274 0.165204,-0.07354 0.348779,-0.09783 0.522949,-0.146484 0.172479,-0.0018 0.344694,-0.01408 0.51709,-0.01318 z" />
  <path
     id="path1729"
     style="fill:url(#linearGradient4362);fill-opacity:1;stroke:#007bff;stroke-width:0;stroke-linejoin:bevel;stroke-dasharray:none;paint-order:markers fill stroke"
     d="m 29.397949,12.978516 a 8.561574,13.374175 50 0 0 -10.964355,4.231933 8.561574,13.374175 50 0 0 -4.741699,15.155274 8.561574,13.374175 50 0 0 15.748535,-2.037598 8.561574,13.374175 50 0 0 4.741699,-15.155273 8.561574,13.374175 50 0 0 -4.78418,-2.194336 z m 0.51416,1.713867 c 0.07975,-0.0042 0.158433,-0.0038 0.23584,0.0029 0.620369,0.04344 1.162832,0.367438 1.627442,0.971191 0.276978,0.35993 0.466134,0.76038 0.566894,1.201172 0.09629,0.434986 0.04762,0.890068 -0.145019,1.366699 -0.187069,0.471958 -0.570115,0.951016 -1.149903,1.437012 l -0.543457,0.455566 1.702149,2.211914 -1.262696,1.059082 -0.218261,-0.284179 -0.134766,0.111328 -4.664062,-5.504883 0.395507,-0.328125 -0.162597,-0.212402 1.905761,-1.598145 c 0.673167,-0.564269 1.288901,-0.859907 1.847168,-0.88916 z m -0.591796,2.178222 c -0.268891,-0.0043 -0.560224,0.123524 -0.871583,0.382325 l -0.09521,0.0791 1.308105,1.699219 0.0249,-0.02051 c 0.332108,-0.276061 0.539409,-0.558579 0.622559,-0.846679 0.08398,-0.297559 0.0021,-0.593225 -0.246094,-0.886231 -0.2264,-0.267324 -0.473784,-0.402976 -0.742675,-0.407227 z m -4.666993,1.571778 4.78418,6.216797 -1.262695,1.059082 -1.356446,-1.763672 -0.748535,-0.883301 -2.195801,1.839844 1.936524,2.286621 -0.237305,0.197754 0.23584,0.306152 -1.262695,1.059082 -4.78418,-6.218262 1.262695,-1.059082 0.540528,0.703125 1.410644,1.665528 1.056153,-0.877442 1.142578,-0.958007 -1.823731,-2.154786 0.19336,-0.161132 L 23.390625,19.5 Z m -6.061523,5.978027 c 0.07552,-0.0053 0.149134,-0.0046 0.222656,0 0.589022,0.02723 1.110137,0.307679 1.562988,0.842285 0.26997,0.318709 0.457935,0.67593 0.5625,1.070801 0.100213,0.389731 0.06299,0.80065 -0.109863,1.233399 -0.07765,0.19842 -0.200089,0.399332 -0.357422,0.60205 -0.206083,0.416841 -0.563473,0.839377 -1.07373,1.26709 l -0.01318,0.01025 1.536621,1.814941 -0.618164,0.514161 0.253418,0.328125 -1.262695,1.059082 -4.78418,-6.218262 1.905762,-1.598145 c 0.722748,-0.60583 1.37845,-0.898596 1.96875,-0.887695 0.06891,-0.01255 0.139222,-0.03337 0.206543,-0.03809 z m -0.484863,1.656738 c -0.08241,-0.0031 -0.16669,0.0093 -0.253418,0.03076 -0.08206,0.05121 -0.162286,0.08732 -0.247559,0.158203 l -0.536133,0.445313 1.384278,1.634765 0.388183,-0.32373 c 0.03014,-0.02505 0.04513,-0.05103 0.07324,-0.07617 0.09115,-0.135118 0.162356,-0.271431 0.203614,-0.410156 0.09569,-0.328514 0.01734,-0.657867 -0.237305,-0.98877 -0.232305,-0.301876 -0.491504,-0.459467 -0.774902,-0.470215 z" />
</svg>
