<?xml version="1.0" encoding="UTF-8" standalone="no"?>
<!-- Generator: Gravit.io -->

<svg
   style="isolation:isolate"
   viewBox="0 0 48 48"
   width="48pt"
   height="48pt"
   version="1.1"
   id="svg2"
   sodipodi:docname="ruby.svg"
   inkscape:export-filename="assembly.svg"
   inkscape:export-xdpi="96"
   inkscape:export-ydpi="96"
   xmlns:inkscape="http://www.inkscape.org/namespaces/inkscape"
   xmlns:sodipodi="http://sodipodi.sourceforge.net/DTD/sodipodi-0.dtd"
   xmlns:xlink="http://www.w3.org/1999/xlink"
   xmlns="http://www.w3.org/2000/svg"
   xmlns:svg="http://www.w3.org/2000/svg">
  <defs
     id="defs2">
    <linearGradient
       id="swatch5"
       inkscape:swatch="solid">
      <stop
         style="stop-color:#4c4c4c;stop-opacity:1;"
         offset="0"
         id="stop5" />
    </linearGradient>
    <linearGradient
       inkscape:collect="always"
       xlink:href="#_lgradient_3"
       id="linearGradient5"
       x1="23.159723"
       y1="17.898102"
       x2="4.3851972"
       y2="6.2102728"
       gradientUnits="userSpaceOnUse"
       gradientTransform="matrix(0,1.2311215,-1.2311215,0,38.903912,6.9635384)" />
    <linearGradient
       inkscape:collect="always"
       xlink:href="#_lgradient_3"
       id="linearGradient6"
       gradientUnits="userSpaceOnUse"
       gradientTransform="matrix(39.009,0,0,44,4.496,2)"
       x1="0.8685751"
       y1="0.16781802"
       x2="0.076906554"
       y2="0.92414987" />
  </defs>
  <sodipodi:namedview
     id="namedview2"
     pagecolor="#ffffff"
     bordercolor="#000000"
     borderopacity="0.25"
     inkscape:showpageshadow="2"
     inkscape:pageopacity="0.0"
     inkscape:pagecheckerboard="0"
     inkscape:deskcolor="#d1d1d1"
     inkscape:document-units="pt" />
  <linearGradient
     id="_lgradient_3"
     x1="0.95182407"
     y1="0.10511363"
     x2="0.076906554"
     y2="0.92414987"
     gradientTransform="matrix(39.009,0,0,44,4.496,2)"
     gradientUnits="userSpaceOnUse"
     inkscape:swatch="gradient">
    <stop
       offset="0%"
       stop-opacity="1"
       style="stop-color:#a578f4;stop-opacity:1"
       id="stop1" />
    <stop
       offset="98.75%"
       stop-opacity="1"
       style="stop-color:#6224d7;stop-opacity:1"
       id="stop2" />
  </linearGradient>
  <path
     d="M 33.752,2.07 C 33.605,2.023 33.449,2 33.288,2 V 2 H 9.428 C 6.706,2 4.496,4.21 4.496,6.932 v 20.211 0 c 0,1.156 0.832,2.095 1.857,2.095 v 0 c 1.025,0 1.858,-0.939 1.858,-2.095 v 0 0 0 V 9.15 c 0,-1.634 1.326,-2.96 2.959,-2.96 h 22.118 v 0 c 0.161,0 0.317,-0.023 0.464,-0.07 0.147,0.047 0.303,0.07 0.465,0.07 v 0 h 2.613 c 1.633,0 2.959,1.326 2.959,2.96 v 3.326 0 c 0,1.157 0.833,2.095 1.858,2.095 v 0 c 1.025,0 1.857,-0.938 1.857,-2.095 v 0 -5.544 C 43.504,4.21 41.294,2 38.572,2 H 34.217 V 2 C 34.055,2 33.899,2.023 33.752,2.07 Z M 13.783,41.81 v 0 c 1.026,0 1.858,0.938 1.858,2.095 v 0 c 0,1.156 -0.832,2.095 -1.858,2.095 v 0 H 9.428 C 6.706,46 4.496,43.79 4.496,41.068 v -5.544 0 c 0,-1.157 0.832,-2.095 1.857,-2.095 v 0 c 1.025,0 1.858,0.938 1.858,2.095 v 0 3.326 c 0,1.634 1.326,2.96 2.959,2.96 z M 39.789,21.905 v 0 c 0,-1.157 0.833,-2.095 1.858,-2.095 v 0 c 1.025,0 1.857,0.938 1.857,2.095 v 0 19.163 c 0,2.722 -2.21,4.932 -4.932,4.932 h -16.43 v 0 c -1.025,0 -1.857,-0.939 -1.857,-2.095 v 0 c 0,-1.157 0.832,-2.095 1.857,-2.095 v 0 H 36.83 c 1.633,0 2.959,-1.326 2.959,-2.96 z"
     fill-rule="evenodd"
     fill="url(#_lgradient_3)"
     id="path2"
     sodipodi:nodetypes="cscsscsssscccsscscscsscsssscsscsccsssscsscsssscsscccsssscsscsssscssc"
     style="fill:url(#linearGradient6)" />
  <path
     id="path4"
     style="fill:url(#linearGradient5);fill-opacity:1;fill-rule:evenodd;stroke-width:17.0894;stroke-linejoin:round;paint-order:stroke fill markers"
     d="m 17.121093,11.679199 -7.2304674,12.117188 6.8789064,12.3208 14.109374,0.203614 7.230469,-12.117187 -6.878906,-12.320802 z m 6.095215,7.132324 c 0.671353,0 1.355741,0.220558 2.053711,0.660644 l -0.536132,1.917482 c -0.606288,-0.393983 -1.129645,-0.591798 -1.570313,-0.591798 -0.227728,0 -0.394534,0.05675 -0.498046,0.169922 -0.103513,0.113165 -0.155274,0.254223 -0.155274,0.421876 0,0.180225 0.06616,0.340894 0.196289,0.483397 0.133087,0.142505 0.491103,0.402081 1.073731,0.779298 0.558967,0.356261 0.945723,0.740619 1.161621,1.151367 0.218855,0.406557 0.328124,0.919238 0.328124,1.539551 0,0.570017 -0.102084,1.077694 -0.306152,1.521972 -0.204067,0.440087 -0.498825,0.783964 -0.883301,1.03125 -0.384475,0.243096 -0.834488,0.364746 -1.35205,0.364746 -0.431795,0 -0.794122,-0.04215 -1.086914,-0.125976 -0.292793,-0.08801 -0.59761,-0.23888 -0.914063,-0.452636 v -2.21338 c 0.334198,0.243095 0.682154,0.434441 1.042968,0.572754 0.360816,0.134122 0.691499,0.200684 0.993165,0.200684 0.26026,0 0.451496,-0.06323 0.572754,-0.188965 0.121253,-0.12993 0.18164,-0.295399 0.18164,-0.496582 0,-0.125739 -0.02589,-0.234452 -0.07617,-0.32666 -0.04732,-0.0964 -0.124947,-0.192175 -0.234376,-0.288574 -0.106467,-0.0964 -0.394042,-0.294215 -0.861328,-0.591798 -0.422922,-0.272435 -0.740672,-0.53681 -0.953613,-0.79248 -0.209983,-0.255669 -0.366702,-0.547794 -0.470215,-0.878906 -0.100558,-0.331113 -0.150879,-0.723609 -0.150879,-1.176269 0,-0.846644 0.217104,-1.506852 0.651856,-1.98047 0.434753,-0.473617 1.032891,-0.710449 1.792967,-0.710449 z m -7.368164,0.09375 h 2.337892 l 2.141601,9.229981 h -1.916016 l -0.319335,-1.722656 h -2.107911 l -0.328125,1.722656 h -1.924805 z m 10.425294,0.03809 h 2.333496 l 1.35205,6.525879 h 0.03516 l 1.327148,-6.525879 h 2.337891 v 9.191895 h -1.609864 v -4.029785 c 0,-0.209566 0.0014,-0.443061 0.0044,-0.698731 0.0059,-0.255669 0.02603,-0.881864 0.06152,-1.879394 h -0.03955 l -1.309571,6.60791 h -1.666992 l -1.327148,-6.619629 h -0.03955 c 0.06211,1.127461 0.09228,2.003426 0.09228,2.62793 v 3.991699 h -1.551269 z m -9.246095,1.478028 c -0.02662,0.213756 -0.07981,0.56577 -0.159667,1.056152 -0.0769,0.490383 -0.249422,1.455653 -0.518555,2.897461 h 1.379883 l -0.279785,-1.508789 c -0.06507,-0.335304 -0.145595,-0.768486 -0.240235,-1.300781 -0.09168,-0.532295 -0.152065,-0.913522 -0.181641,-1.144043 z" />
</svg>
