<?xml version="1.0" encoding="UTF-8" standalone="no"?>
<!-- Generator: Gravit.io -->

<svg
   style="isolation:isolate"
   viewBox="0 0 48 48"
   width="48pt"
   height="48pt"
   version="1.1"
   id="svg3"
   sodipodi:docname="css.svg"
   xml:space="preserve"
   xmlns:inkscape="http://www.inkscape.org/namespaces/inkscape"
   xmlns:sodipodi="http://sodipodi.sourceforge.net/DTD/sodipodi-0.dtd"
   xmlns:xlink="http://www.w3.org/1999/xlink"
   xmlns="http://www.w3.org/2000/svg"
   xmlns:svg="http://www.w3.org/2000/svg"><defs
     id="defs3"><linearGradient
       id="linearGradient12"
       inkscape:collect="always"><stop
         style="stop-color:#ff7f2a;stop-opacity:1;"
         offset="0"
         id="stop12" /><stop
         style="stop-color:#d45500;stop-opacity:1;"
         offset="1"
         id="stop13" /></linearGradient><linearGradient
       id="linearGradient10"
       inkscape:collect="always"><stop
         style="stop-color:#ff7f2a;stop-opacity:1;"
         offset="0"
         id="stop10" /><stop
         style="stop-color:#d45500;stop-opacity:1;"
         offset="1"
         id="stop11" /></linearGradient><linearGradient
       id="linearGradient7"
       inkscape:collect="always"><stop
         style="stop-color:#ff7f2a;stop-opacity:1;"
         offset="0"
         id="stop7" /><stop
         style="stop-color:#d45500;stop-opacity:1;"
         offset="1"
         id="stop8" /></linearGradient><linearGradient
       id="linearGradient3"
       inkscape:collect="always"><stop
         style="stop-color:#77d7a5;stop-opacity:1;"
         offset="0"
         id="stop4" /><stop
         style="stop-color:#4bd2ee;stop-opacity:1;"
         offset="1"
         id="stop5" /></linearGradient><linearGradient
       inkscape:collect="always"
       xlink:href="#linearGradient3"
       id="linearGradient5"
       x1="50.474609"
       y1="110.63567"
       x2="84.022812"
       y2="109.65509"
       gradientUnits="userSpaceOnUse" /><linearGradient
       inkscape:collect="always"
       xlink:href="#linearGradient7"
       id="linearGradient8"
       x1="61.00687"
       y1="105.47752"
       x2="70.814461"
       y2="115.0361"
       gradientUnits="userSpaceOnUse" /><linearGradient
       inkscape:collect="always"
       xlink:href="#linearGradient10"
       id="linearGradient11"
       x1="85.799583"
       y1="99.634979"
       x2="89.621048"
       y2="103.6131"
       gradientUnits="userSpaceOnUse" /><linearGradient
       inkscape:collect="always"
       xlink:href="#linearGradient12"
       id="linearGradient13"
       x1="87.717941"
       y1="119.25555"
       x2="93.210014"
       y2="124.67932"
       gradientUnits="userSpaceOnUse" /></defs><sodipodi:namedview
     id="namedview3"
     pagecolor="#ffffff"
     bordercolor="#000000"
     borderopacity="0.25"
     inkscape:showpageshadow="2"
     inkscape:pageopacity="0.0"
     inkscape:pagecheckerboard="0"
     inkscape:deskcolor="#d1d1d1"
     inkscape:document-units="pt" /><linearGradient
     id="_lgradient_0"
     x1="-0.0022812171"
     y1="0.46788064"
     x2="1.0074803"
     y2="0.47611076"
     gradientTransform="matrix(39.009,0,0,44,4.496,2)"
     gradientUnits="userSpaceOnUse"><stop
       offset="0"
       stop-opacity="1"
       style="stop-color:#4bd2ee;stop-opacity:1;"
       id="stop1" /><stop
       offset="51.73913043478261%"
       stop-opacity="1"
       style="stop-color:rgb(32,189,255)"
       id="stop2" /><stop
       offset="1"
       stop-opacity="1"
       style="stop-color:#77d7a5;stop-opacity:1;"
       id="stop3" /></linearGradient><path
     d="M 33.752,2.07 C 33.605,2.023 33.449,2 33.288,2 V 2 H 9.428 C 6.706,2 4.496,4.21 4.496,6.932 v 20.211 0 c 0,1.156 0.832,2.095 1.857,2.095 v 0 c 1.025,0 1.858,-0.939 1.858,-2.095 v 0 0 0 V 9.15 c 0,-1.634 1.326,-2.96 2.959,-2.96 h 22.118 v 0 c 0.161,0 0.317,-0.023 0.464,-0.07 0.147,0.047 0.303,0.07 0.465,0.07 v 0 h 2.613 c 1.633,0 2.959,1.326 2.959,2.96 v 3.326 0 c 0,1.157 0.833,2.095 1.858,2.095 v 0 c 1.025,0 1.857,-0.938 1.857,-2.095 v 0 -5.544 C 43.504,4.21 41.294,2 38.572,2 H 34.217 V 2 C 34.055,2 33.899,2.023 33.752,2.07 Z M 13.783,41.81 v 0 c 1.026,0 1.858,0.938 1.858,2.095 v 0 c 0,1.156 -0.832,2.095 -1.858,2.095 v 0 H 9.428 C 6.706,46 4.496,43.79 4.496,41.068 v -5.544 0 c 0,-1.157 0.832,-2.095 1.857,-2.095 v 0 c 1.025,0 1.858,0.938 1.858,2.095 v 0 3.326 c 0,1.634 1.326,2.96 2.959,2.96 z M 39.789,21.905 v 0 c 0,-1.157 0.833,-2.095 1.858,-2.095 v 0 c 1.025,0 1.857,0.938 1.857,2.095 v 0 19.163 c 0,2.722 -2.21,4.932 -4.932,4.932 h -16.43 v 0 c -1.025,0 -1.857,-0.939 -1.857,-2.095 v 0 c 0,-1.157 0.832,-2.095 1.857,-2.095 v 0 H 36.83 c 1.633,0 2.959,-1.326 2.959,-2.96 z"
     fill-rule="evenodd"
     fill="url(#_lgradient_0)"
     id="path3"
     sodipodi:nodetypes="cscsscsssscccsscscscsscsssscsscsccsssscsscsssscsscccsssscsscsssscssc"
     style="fill:url(#_lgradient_0)" /><g
     transform="matrix(0.87532208,0,0,0.87532208,-43.829827,-73.186452)"
     id="g3025"><path
       d="m 66.432103,97.488679 c -5.19584,5.646431 -3.93661,16.169031 2.81107,23.501871 6.74768,7.33285 16.42898,8.69955 21.62483,3.05312 5.19585,-5.64643 3.9402,-16.16946 -2.80749,-23.5023 -6.74768,-7.332861 -16.43256,-8.699131 -21.62841,-3.052691 z m 4.71149,2.34553 c 4.08256,-4.43659 11.589,-3.47152 16.76741,2.155961 5.17842,5.6275 6.06647,13.78491 1.98391,18.2215 -4.08256,4.43658 -11.59097,3.47369 -16.76939,-2.15381 -5.17842,-5.6275 -6.06449,-13.78704 -1.98193,-18.223651 z"
       id="path5874"
       style="fill:url(#linearGradient5);fill-opacity:1;stroke:none" /><rect
       width="4.349854"
       height="4.349854"
       rx="0.76958966"
       ry="0.76958966"
       x="85.381561"
       y="99.493881"
       id="rect5876"
       style="fill:url(#linearGradient11);fill-opacity:1;fill-rule:nonzero;stroke:none;stroke-width:0.744038;stroke-miterlimit:4;stroke-dasharray:none" /><rect
       width="10.245436"
       height="10.245436"
       rx="1.8126545"
       ry="1.8126545"
       x="60.92659"
       y="105.2245"
       id="rect5878"
       style="fill:url(#linearGradient8);fill-opacity:1;fill-rule:nonzero;stroke:none;stroke-width:0.744038;stroke-miterlimit:4;stroke-dasharray:none" /><rect
       width="6.1897531"
       height="6.1897531"
       rx="1.0951102"
       ry="1.0951102"
       x="87.404739"
       y="118.63705"
       id="rect5880"
       style="fill:url(#linearGradient13);fill-opacity:1;fill-rule:nonzero;stroke:none;stroke-width:0.744038;stroke-miterlimit:4;stroke-dasharray:none" /></g></svg>
