<?xml version="1.0" encoding="UTF-8" standalone="no"?>
<!-- Generator: Gravit.io -->

<svg
   style="isolation:isolate"
   viewBox="0 0 48 48"
   width="48pt"
   height="48pt"
   version="1.1"
   id="svg9"
   xmlns:xlink="http://www.w3.org/1999/xlink"
   xmlns="http://www.w3.org/2000/svg"
   xmlns:svg="http://www.w3.org/2000/svg">
  <defs
     id="defs13">
    <linearGradient
       id="linearGradient4360">
      <stop
         style="stop-color:#5500d4;stop-opacity:1"
         offset="0"
         id="stop4356" />
      <stop
         style="stop-color:#8787de;stop-opacity:1"
         offset="1"
         id="stop4358" />
    </linearGradient>
    <linearGradient
       xlink:href="#linearGradient4360"
       id="linearGradient4362"
       x1="-12.647664"
       y1="32.931747"
       x2="18.636013"
       y2="31.562046"
       gradientUnits="userSpaceOnUse"
       gradientTransform="rotate(-40,1.7992619,-0.90315131)" />
  </defs>
  <linearGradient
     id="_lgradient_3"
     x1="0.95182407"
     y1="0.10511363"
     x2="0.06594222"
     y2="0.88474542"
     gradientTransform="matrix(39.009,0,0,44,4.496,2)"
     gradientUnits="userSpaceOnUse">
    <stop
       offset="0%"
       stop-opacity="1"
       style="stop-color:#8787de;stop-opacity:1"
       id="stop2" />
    <stop
       offset="1"
       stop-opacity="1"
       style="stop-color:#5500d4;stop-opacity:1"
       id="stop4" />
  </linearGradient>
  <path
     id="path7"
     style="fill:url(#_lgradient_3)"
     d="m 9.4277344,1.9995117 c -2.7219703,0 -4.9321289,2.2101586 -4.9321289,4.9321289 V 27.143555 c 0,1.155989 0.8324339,2.094726 1.8574218,2.094726 1.024989,0 1.8574219,-0.938737 1.8574219,-2.094726 V 9.1494141 c 0,-1.6339824 1.325998,-2.9589844 2.9589848,-2.9589844 h 22.11914 c 0.161,0 0.315891,-0.023323 0.462891,-0.070312 0.147,0.047 0.30382,0.070312 0.46582,0.070312 h 2.613281 c 1.632989,0 2.958985,1.325002 2.958985,2.9589844 v 3.3266599 c 0,1.156989 0.832433,2.094727 1.857422,2.094727 1.024989,0 1.857422,-0.937738 1.857422,-2.094727 V 6.9316406 c 0,-2.7219703 -2.210162,-4.9321289 -4.932129,-4.9321289 h -4.354981 c -0.162,0 -0.31882,0.023323 -0.46582,0.070312 -0.147,-0.047 -0.301891,-0.070312 -0.462891,-0.070312 z M 41.646973,19.810547 c -1.024989,0 -1.857422,0.937748 -1.857422,2.094726 v 16.945313 c 0,1.633978 -1.325996,2.958984 -2.958985,2.958984 H 22.142578 c -1.024989,0 -1.857422,0.937738 -1.857422,2.094727 0,1.155989 0.832433,2.096191 1.857422,2.096191 h 16.429688 c 2.721967,0 4.932129,-2.210151 4.932129,-4.932129 V 21.905273 c 0,-1.156978 -0.832433,-2.094726 -1.857422,-2.094726 z M 6.3530273,33.429199 c -1.0249879,0 -1.8574218,0.937738 -1.8574218,2.094727 v 5.544433 c 0,2.721978 2.2101586,4.932129 4.9321289,4.932129 h 4.3549806 c 1.025989,0 1.858887,-0.940202 1.858887,-2.096191 0,-1.156989 -0.832898,-2.094727 -1.858887,-2.094727 h -2.613281 c -1.6329868,0 -2.9589848,-1.325006 -2.9589848,-2.958984 v -3.32666 c 0,-1.156989 -0.8324329,-2.094727 -1.8574219,-2.094727 z" />
  <path
     id="ellipse4299"
     style="isolation:isolate;fill:#afafe9;stroke:#007bff;stroke-width:0;stroke-linejoin:bevel;stroke-dasharray:none;paint-order:markers fill stroke"
     d="m 29.226562,12.796875 a 8.7926167,13.747944 50.350188 0 0 -10.385742,4.35791 8.7926167,13.747944 50.350188 0 0 -4.885253,15.530274 8.7926167,13.747944 50.350188 0 0 16.224609,-2.088868 8.7926167,13.747944 50.350188 0 0 4.883789,-15.530273 8.7926167,13.747944 50.350188 0 0 -5.837403,-2.269043 z m -0.572753,1.123535 c 0.05746,2.98e-4 0.114048,0.0017 0.171387,0.0059 0.417227,0.03047 0.89381,0.27391 1.267089,0.452637 0.211119,0.119657 0.293444,0.161292 0.51709,0.325195 0.227952,0.167066 0.424616,0.369841 0.602049,0.588869 0.07353,0.04144 0.146708,0.08458 0.216797,0.134765 0.23647,0.171704 0.460816,0.36052 0.669435,0.565429 0.214228,0.217256 0.410451,0.449658 0.583044,0.701629 0.114082,0.160516 0.207573,0.282197 0.35596,0.451171 0.24956,0.310759 0.497344,0.625725 0.651855,0.997558 0.03883,0.09859 0.08685,0.193948 0.115723,0.295899 0.0912,0.322109 0.129937,0.639834 0.117187,0.971192 -9e-6,0.200373 4.3e-5,0.401677 0,0.60205 -6.6e-5,0.264361 3e-4,0.52812 0,0.792481 -4e-4,0.31071 -7.29e-4,0.620936 -0.0029,0.93164 -0.0028,0.355891 -0.0032,0.712586 -0.02637,1.067872 -0.0324,0.395711 -0.08587,0.791774 -0.210937,1.17041 -0.181677,0.485521 -0.425082,0.936568 -0.745606,1.346191 -0.392971,0.508519 -0.830673,0.982279 -1.398925,1.299317 -0.365553,0.206145 -0.742432,0.392196 -1.135255,0.540526 -0.175706,0.181879 -0.3475,0.365545 -0.525877,0.544925 -0.350916,0.348376 -0.699603,0.701509 -1.098634,0.996091 -0.343366,0.263463 -0.695797,0.515812 -1.02539,0.796877 -0.312614,0.242429 -0.601828,0.511099 -0.905269,0.764653 -0.419675,0.353448 -0.857056,0.68851 -1.353515,0.928712 -0.404224,0.190887 -0.81476,0.373401 -1.249511,0.483398 -0.147637,0.110174 -0.297549,0.218247 -0.452635,0.317875 -0.485062,0.287121 -0.992682,0.537081 -1.53662,0.692871 -0.430501,0.107528 -0.870349,0.195136 -1.316895,0.180176 -0.347791,-0.01684 -0.694409,-0.04328 -1.038574,-0.09815 -0.539294,-0.09642 -1.067965,-0.247136 -1.526367,-0.55957 -0.05106,-0.0329 -0.103019,-0.06191 -0.153809,-0.09521 -0.001,-7.16e-4 9.79e-4,-0.0033 0.0015,-0.0044 l 0.04248,0.01611 c -0.394746,-0.179158 -0.106559,-0.03448 -0.439453,-0.209472 -0.455706,-0.271543 -0.871325,-0.602734 -1.144043,-1.067871 -0.09929,-0.155636 -0.197771,-0.311465 -0.294434,-0.46875 -0.19944,-0.124024 -0.385519,-0.267957 -0.552246,-0.439453 -0.199133,-0.10312 -0.395932,-0.210536 -0.585937,-0.329591 -0.17802,-0.09086 -0.350708,-0.192835 -0.508301,-0.3208 -0.124362,-0.100982 -0.253348,-0.200444 -0.350097,-0.328126 -0.16426,-0.216766 -0.284421,-0.46375 -0.42627,-0.6958 -0.04877,-0.25548 -0.129384,-0.506585 -0.146485,-0.766114 -0.02487,-0.377476 0.11055,-0.718018 0.199219,-1.072265 0.09396,-0.438256 0.206684,-0.872124 0.443848,-1.258301 0.199262,-0.337976 0.415511,-0.666133 0.659179,-0.974121 0.09422,-0.147187 0.192036,-0.292767 0.295899,-0.433594 0.256661,-0.394051 0.542495,-0.771082 0.89502,-1.085449 0.147905,-0.12456 0.3,-0.242347 0.458496,-0.353027 0.425712,-0.394125 0.879346,-0.757266 1.409179,-1.006348 0.673795,-0.345382 1.364438,-0.655801 2.056641,-0.962403 0.526621,-0.227853 1.063306,-0.433122 1.583496,-0.675293 0.493062,-0.228675 0.975177,-0.476878 1.45166,-0.738281 0.250302,-0.130924 0.498022,-0.266007 0.744141,-0.404296 0.087,-0.06962 0.171118,-0.143511 0.249021,-0.224125 0.150632,-0.142334 0.264239,-0.319842 0.379394,-0.490722 0.191159,-0.308972 0.373384,-0.624062 0.559571,-0.936035 0.246099,-0.388476 0.503673,-0.768361 0.760253,-1.149903 0.445833,-0.689663 0.869409,-1.306085 1.653809,-1.655273 0.165207,-0.07354 0.34878,-0.09783 0.52295,-0.146485 0.172479,-0.0018 0.344694,-0.01408 0.51709,-0.01318 z" />
  <path
     id="path1729"
     style="fill:url(#linearGradient4362);fill-opacity:1;stroke:#007bff;stroke-width:0;stroke-linejoin:bevel;stroke-dasharray:none;paint-order:markers fill stroke"
     d="m 29.397949,12.978515 a 8.561574,13.374175 50 0 0 -10.964355,4.231935 8.561574,13.374175 50 0 0 -4.7417,15.155273 8.561574,13.374175 50 0 0 15.748536,-2.037598 8.561574,13.374175 50 0 0 4.741699,-15.155273 8.561574,13.374175 50 0 0 -4.78418,-2.194337 z m 0.260742,2.428712 c 0.589023,0.02723 1.108672,0.307678 1.561523,0.842285 0.269934,0.318738 0.457935,0.675928 0.562501,1.0708 0.100212,0.389731 0.06445,0.80065 -0.108398,1.233398 -0.167665,0.428436 -0.522325,0.866843 -1.062013,1.315431 l -0.505375,0.420405 1.658203,1.958496 -1.174814,0.97704 -4.664063,-5.504882 1.775392,-1.475097 c 0.716102,-0.595268 1.368843,-0.874577 1.95703,-0.83789 z m -0.338379,1.463379 c -0.268891,-0.0043 -0.560223,0.123523 -0.871582,0.382324 l -0.536153,0.446752 1.384269,1.634773 0.389669,-0.323707 c 0.332108,-0.276061 0.539409,-0.558578 0.622559,-0.846679 0.08398,-0.297559 0.0021,-0.593225 -0.246094,-0.886231 -0.226401,-0.267324 -0.473785,-0.402975 -0.742677,-0.407226 z m -4.794433,2.01416 4.664062,5.504882 -1.176252,0.977072 -2.01123,-2.374512 -2.203123,1.831056 2.01123,2.374513 -1.174814,0.977039 -4.664062,-5.504882 1.176252,-0.977072 1.828125,2.15918 2.203124,-1.831056 -1.828125,-2.15918 z m -5.934082,5.535644 c 0.07552,-0.0053 0.149134,-0.0046 0.222656,0 0.589022,0.02723 1.110136,0.307678 1.562988,0.842285 0.26997,0.318709 0.457934,0.67593 0.5625,1.070801 0.100213,0.389731 0.06299,0.800649 -0.109863,1.233398 -0.167665,0.428436 -0.520859,0.866842 -1.060547,1.31543 l -0.505375,0.420406 1.658203,1.958496 -1.174814,0.97704 -4.664062,-5.504882 1.775393,-1.47656 c 0.626614,-0.520831 1.204254,-0.799409 1.73291,-0.836426 z m -0.115723,1.463379 c -0.268892,-0.0043 -0.558759,0.123523 -0.870117,0.382324 l -0.536139,0.445305 1.384276,1.634766 0.388166,-0.323752 c 0.332109,-0.276062 0.540879,-0.557108 0.624023,-0.845215 0.08398,-0.297558 0.0021,-0.593224 -0.246093,-0.88623 -0.226424,-0.267306 -0.475248,-0.402975 -0.744141,-0.407227 z" />
</svg>
