<?xml version="1.0" encoding="UTF-8" standalone="no"?>
<!-- Generator: Gravit.io -->

<svg
   style="isolation:isolate"
   viewBox="0 0 48 48"
   width="48pt"
   height="48pt"
   version="1.1"
   id="svg16"
   sodipodi:docname="blender.svg"
   inkscape:version="1.2.2 (b0a8486541, 2022-12-01)"
   xmlns:inkscape="http://www.inkscape.org/namespaces/inkscape"
   xmlns:sodipodi="http://sodipodi.sourceforge.net/DTD/sodipodi-0.dtd"
   xmlns="http://www.w3.org/2000/svg"
   xmlns:svg="http://www.w3.org/2000/svg">
  <defs
     id="defs20" />
  <sodipodi:namedview
     id="namedview18"
     pagecolor="#ffffff"
     bordercolor="#000000"
     borderopacity="0.25"
     inkscape:showpageshadow="2"
     inkscape:pageopacity="0.0"
     inkscape:pagecheckerboard="0"
     inkscape:deskcolor="#d1d1d1"
     inkscape:document-units="pt"
     showgrid="false"
     inkscape:zoom="5.2926017"
     inkscape:cx="4.7235748"
     inkscape:cy="53.754282"
     inkscape:window-width="1920"
     inkscape:window-height="1056"
     inkscape:window-x="0"
     inkscape:window-y="0"
     inkscape:window-maximized="1"
     inkscape:current-layer="svg16" />
  <linearGradient
     id="_lgradient_26"
     x1="0"
     y1="0.5"
     x2="1"
     y2="0.5"
     gradientTransform="matrix(39.000277,0,0,36.950482,3.9040401,9.0999611)"
     gradientUnits="userSpaceOnUse">
    <stop
       offset="0%"
       stop-opacity="1"
       style="stop-color:rgb(255,224,49)"
       id="stop2" />
    <stop
       offset="98.69565217391305%"
       stop-opacity="1"
       style="stop-color:rgb(252,82,82)"
       id="stop4" />
  </linearGradient>
  <path
     d="m 26.286649,17.57699 c 0.07165,-0.01311 0.143293,-0.02359 0.21494,-0.03408 l -0.311926,-0.241152 c 0.04194,0.0865 0.07689,0.177369 0.09699,0.275228 v 0 z m -6.55218,2.593262 v 0 l -11.3795952,0.07252 c -0.959367,0.0061 -1.7448596,-0.767144 -1.7527233,-1.726511 l -0.00349,-0.352117 c -0.00787,-0.959367 0.7636442,-1.743112 1.7230112,-1.749229 L 24.607319,16.31094 c 0.117082,-8.73e-4 0.230668,0.01048 0.341633,0.03145 L 20.093576,12.58968 C 19.281872,11.963208 19.132462,10.795017 19.759808,9.9833127 l 0.124071,-0.161642 C 20.511224,9.0099659 21.679415,8.8605562 22.49112,9.4879019 L 34.214969,18.54859 c 1.661854,0.711224 3.1909,1.736122 4.495395,3.037121 2.682383,2.691121 4.193954,6.334618 4.193954,10.135389 0,3.800771 -1.511571,7.444269 -4.193954,10.135389 -2.691121,2.682383 -6.334618,4.193954 -10.135389,4.193954 -3.774559,0 -7.409319,-1.494096 -8.844875,-2.925283 -0.683265,-0.680644 -0.687633,-1.78942 -0.01048,-2.474433 v 0 c 0.677148,-0.685012 1.78243,-0.688507 2.465695,-0.0079 0.788988,0.785492 3.532533,1.912617 6.389664,1.912617 2.874606,0 5.626888,-1.144599 7.662703,-3.171677 2.027078,-2.035815 3.171678,-4.788098 3.171678,-7.662704 0,-2.874606 -1.1446,-5.626888 -3.171678,-7.662703 -2.035815,-2.027078 -4.788097,-3.171678 -7.662703,-3.171678 -2.874606,0 -5.626889,1.1446 -7.662704,3.171678 -2.027078,2.035815 -3.171678,4.788097 -3.171678,7.662703 0,1.275661 0.227173,2.533847 0.227173,2.533847 0.241152,0.660548 -0.298819,1.467011 -1.205762,1.799906 v 0 c -0.906942,0.332895 -1.901259,-0.105723 -2.2193,-0.97859 0,0 -0.297072,-1.668844 -0.297072,-3.355163 0,-0.754038 0.05941,-1.502833 0.175622,-2.238523 l -7.2328276,5.776335 c -0.9331548,0.744427 -2.2306593,0.67977 -2.8964495,-0.144167 v 0 C 3.6261907,34.290771 3.8393833,33.012489 4.7672957,32.261946 Z M 22.895662,31.7211 c 0,-1.502833 0.602881,-2.953242 1.660107,-4.019206 1.065963,-1.057226 2.516372,-1.660107 4.019206,-1.660107 1.502833,0 2.953242,0.602881 4.019206,1.660107 1.057226,1.065964 1.660106,2.516373 1.660106,4.019206 0,1.502834 -0.60288,2.953243 -1.660106,4.019206 -1.065964,1.057226 -2.516373,1.660107 -4.019206,1.660107 -1.502834,0 -2.953243,-0.602881 -4.019206,-1.660107 -1.057226,-1.065963 -1.660107,-2.516372 -1.660107,-4.019206 z m -2.621221,0 c 0,-2.201826 0.87374,-4.316277 2.428998,-5.871535 1.555258,-1.555258 3.66971,-2.428999 5.871536,-2.428999 2.201826,0 4.316277,0.873741 5.871535,2.428999 1.555258,1.555258 2.428999,3.669709 2.428999,5.871535 0,2.201826 -0.873741,4.316278 -2.428999,5.871536 -1.555258,1.555258 -3.669709,2.428998 -5.871535,2.428998 -2.201826,0 -4.316278,-0.87374 -5.871536,-2.428998 -1.555258,-1.555258 -2.428998,-3.66971 -2.428998,-5.871536 z"
     fill-rule="evenodd"
     fill="url(#_lgradient_26)"
     id="path7"
     style="fill:url(#_lgradient_26);stroke-width:0.87374" />
  <linearGradient
     id="_lgradient_27"
     x1="-0.000038208333333289435"
     y1="0.5000000833333331"
     x2="0.9999618333333335"
     y2="0.5000000833333331"
     gradientTransform="matrix(6.1161829,0,0,6.1161829,25.498535,28.663009)"
     gradientUnits="userSpaceOnUse">
    <stop
       offset="0%"
       stop-opacity="1"
       style="stop-color:rgb(0,198,255)"
       id="stop9" />
    <stop
       offset="98.69565217391305%"
       stop-opacity="1"
       style="stop-color:rgb(0,114,255)"
       id="stop11" />
  </linearGradient>
  <circle
     vector-effect="non-scaling-stroke"
     cx="28.556734"
     cy="31.721102"
     fill="url(#_lgradient_27)"
     id="circle14"
     r="3.0580914"
     style="fill:url(#_lgradient_27);stroke-width:0.87374" />
</svg>
