<?xml version="1.0" encoding="UTF-8" standalone="no"?>
<!-- Generator: Gravit.io -->

<svg
   style="isolation:isolate"
   viewBox="0 0 48 48"
   width="48pt"
   height="48pt"
   version="1.1"
   id="svg344"
   sodipodi:docname="gimp.svg"
   inkscape:version="1.2.2 (b0a8486541, 2022-12-01)"
   xmlns:inkscape="http://www.inkscape.org/namespaces/inkscape"
   xmlns:sodipodi="http://sodipodi.sourceforge.net/DTD/sodipodi-0.dtd"
   xmlns="http://www.w3.org/2000/svg"
   xmlns:svg="http://www.w3.org/2000/svg">
  <defs
     id="defs348" />
  <sodipodi:namedview
     id="namedview346"
     pagecolor="#ffffff"
     bordercolor="#000000"
     borderopacity="0.25"
     inkscape:showpageshadow="2"
     inkscape:pageopacity="0.0"
     inkscape:pagecheckerboard="0"
     inkscape:deskcolor="#d1d1d1"
     inkscape:document-units="pt"
     showgrid="false"
     inkscape:zoom="5.4165036"
     inkscape:cx="-28.062383"
     inkscape:cy="45.324441"
     inkscape:window-width="1920"
     inkscape:window-height="1056"
     inkscape:window-x="0"
     inkscape:window-y="0"
     inkscape:window-maximized="1"
     inkscape:current-layer="svg344" />
  <linearGradient
     id="_lgradient_8"
     x1="0"
     y1="0.5"
     x2="1"
     y2="0.5"
     gradientTransform="matrix(39.999603,0,0,33.721828,4.0003978,7.1391065)"
     gradientUnits="userSpaceOnUse">
    <stop
       offset="0%"
       stop-opacity="1"
       style="stop-color:rgb(175,104,229)"
       id="stop337" />
    <stop
       offset="98.26086956521739%"
       stop-opacity="1"
       style="stop-color:rgb(250,172,128)"
       id="stop339" />
  </linearGradient>
  <path
     d="m 12.125025,16.836571 c -0.39533,0.417387 -0.727882,0.887371 -0.987477,1.39638 v 0 C 10.76682,18.047163 10.382519,17.891915 9.9897338,17.768905 9.4383077,17.599235 8.8699146,17.505917 8.3015215,17.497434 c -0.9416661,-0.01697 -1.8578818,0.279954 -2.6044279,0.83138 -0.5853601,0.449625 -1.0349844,1.043468 -1.3149393,1.73063 -0.2629878,0.661711 -0.39024,1.374324 -0.3817565,2.095419 0.00848,0.941667 0.1866365,1.874849 0.5259757,2.748648 0.3647896,0.967116 0.8737983,1.883332 1.5015757,2.706229 v 0 c 0.7889636,1.051952 1.7815306,1.942717 2.9183167,2.621395 0.1688213,0.09926 0.3401875,0.192575 0.5157955,0.27741 2.9072886,1.788317 6.0326016,3.191485 9.2995896,4.176417 1.527026,0.466591 3.087986,0.822897 4.665913,1.077401 1.467642,0.237538 2.943767,0.356306 4.428376,0.36479 1.331906,0.0085 2.663813,-0.118769 3.970268,-0.373273 0.675285,-0.125556 1.34039,-0.308799 1.987679,-0.537853 0,0.02121 0.09926,0.03563 0.299467,0.04157 v 0 q 0.124707,0.0042 0.300315,0.0042 c 0,0 2.271028,0.651531 3.697949,1.094369 -0.222267,0.981538 0.289286,2.192131 1.609316,2.675689 C 41.938515,39.843724 44,40.860893 44,40.860893 v 0 c -1.05789,-3.437506 -1.432859,-6.166641 -4.197625,-5.923165 -0.106044,0.0093 -0.207845,0.02545 -0.305405,0.04666 l -3.119375,-1.598287 v 0 c 0.851741,-0.883979 1.594045,-1.874849 2.201462,-2.942919 0.856832,-1.527026 1.518543,-3.164337 1.968167,-4.861033 0.517493,-1.934233 0.873799,-3.9024 1.060435,-5.896018 0.229054,-2.299023 0.339339,-4.615012 0.322372,-6.931002 0,-1.230104 -0.01697,-2.460208 -0.06787,-3.6903128 C 41.505857,8.4794961 41.030783,7.9874544 40.46239,7.6141813 40.004282,7.3087761 39.461339,7.14759 38.909913,7.1391065 c -0.551426,0.00848 -1.085885,0.1696696 -1.552477,0.4750748 -0.41569,0.2714713 -0.78048,0.6108105 -1.094368,1.009534 -1.281006,1.2470714 -2.604428,2.4517257 -3.970268,3.6054787 -0.687162,0.568393 -1.399774,1.102851 -2.129354,1.603377 -0.704128,0.483558 -1.433708,0.907732 -2.197221,1.281005 l -0.207845,0.101802 c -0.525976,-0.151006 -1.074857,-0.229054 -1.633069,-0.229054 -1.569444,0 -3.087987,0.627777 -4.199322,1.739113 -0.245173,0.245173 -0.466592,0.509857 -0.648987,0.799992 v 0 0 C 21.095456,17.235294 20.873189,16.97061 20.628016,16.725437 20.146155,16.242727 19.58879,15.851639 18.98307,15.5632 l -3.479075,-4.640462 c -0.161186,-0.22057 -0.356306,-0.424174 -0.576876,-0.593844 -0.305406,-0.254504 -0.695646,-0.3902395 -1.085886,-0.398723 -0.636261,0.00848 -1.213137,0.398723 -1.459158,0.984083 -0.152703,0.356307 -0.220571,0.738063 -0.212087,1.11982 z m 2.561163,-1.588956 c 0.295225,-0.09077 0.598085,-0.158641 0.906035,-0.201907 l -0.894158,-0.950149 z m -1.423528,4.47758 c 0.201058,-0.557364 0.553971,-1.048558 1.019714,-1.430314 0.602327,-0.492042 1.36584,-0.763514 2.14632,-0.763514 0.899249,0 1.764564,0.356307 2.400825,0.992567 0.636261,0.636261 0.992567,1.501576 0.992567,2.400825 0,0.02121 0,0.04242 -0.0017,0.06363 v 0 0 c -0.109437,-0.196817 -0.246869,-0.368183 -0.406359,-0.509857 -0.201906,-0.17985 -0.434354,-0.312192 -0.681223,-0.40042 0.374122,1.522784 -1.908783,2.3618 -2.651087,0.962026 -0.151006,0.293529 -0.238386,0.641351 -0.238386,1.028198 0,0.675285 0.266381,1.229256 0.671043,1.588955 0.284197,0.252808 0.627778,0.412298 0.987477,0.484407 -0.341884,0.117072 -0.704977,0.176456 -1.07316,0.176456 -0.07296,0 -0.145916,-0.0017 -0.219722,-0.0059 -0.0526,-0.163731 -0.108588,-0.325766 -0.170518,-0.486103 -0.364786,-0.967159 -0.865312,-1.883375 -1.493089,-2.697789 -0.383453,-0.510705 -0.811021,-0.981538 -1.282702,-1.403167 z M 30.328026,16.72883 c 1.109639,1.111336 1.73572,2.619699 1.73572,4.195929 0,1.577927 -0.627778,3.087986 -1.739114,4.199322 -1.111335,1.111336 -2.621394,1.739113 -4.199321,1.739113 -1.569444,0 -3.087987,-0.627777 -4.199322,-1.739113 -0.245173,-0.245173 -0.466592,-0.509857 -0.648987,-0.799992 v 0 c -0.181546,0.290135 -0.403813,0.554819 -0.648986,0.799992 -1.07825,1.07825 -2.532318,1.701786 -4.060193,1.734871 -0.02121,0.620143 -0.148461,1.236043 -0.38515,1.819707 -0.271471,0.678678 -0.721095,1.272521 -1.306455,1.722146 -0.028,0.02036 -0.05684,0.04072 -0.08653,0.05938 v 0 c 1.522785,0.710916 3.099015,1.306456 4.710028,1.790014 1.416741,0.432658 2.867415,0.763513 4.335057,1.001051 1.331906,0.212087 2.68078,0.322372 4.029653,0.330855 1.17072,0.0085 2.332956,-0.101801 3.478226,-0.322372 0.04751,-0.0093 0.09417,-0.01866 0.140826,-0.02969 -1.724692,-1.114729 -3.267836,-2.366891 -4.049165,-3.025209 -0.787267,0.773694 -1.944413,1.288641 -3.406965,1.322575 -1.909631,0.04411 -4.340996,-0.699039 -7.174478,-1.694151 v -0.0017 0 c 1.81801,0 3.475681,0.09077 4.978954,0 2.496688,-0.154399 4.692212,-0.42587 5.801851,-1.27846 -0.469136,-0.604024 -0.60063,-1.265735 -0.60063,-1.265735 0,0 1.412499,0.576028 2.145472,1.518543 0.471681,0.60572 0.228205,0.754181 -0.0526,1.106245 1.128303,0.476772 3.037085,1.339542 4.788924,2.3109 0.972206,-0.865315 1.799346,-1.890119 2.441545,-3.026905 0.755029,-1.348873 1.34039,-2.782581 1.73063,-4.26719 0.483558,-1.798498 0.814414,-3.630929 0.992567,-5.488811 0.22057,-2.214188 0.322372,-4.445343 0.305405,-6.676497 0,-0.933183 -0.0085,-1.866365 -0.03393,-2.7995481 -0.09332,-0.084835 -0.186637,-0.1611861 -0.288438,-0.2290539 -0.0509,-0.02545 -0.101802,-0.042417 -0.152703,-0.050901 -0.0509,0.00848 -0.101802,0.025451 -0.152703,0.050901 -0.203603,0.1357357 -0.381756,0.305405 -0.525975,0.500525 -0.04242,0.05938 -0.09332,0.110286 -0.135736,0.152703 l -0.04242,0.04242 c -1.323423,1.297972 -2.70623,2.553527 -4.122971,3.749697 -0.75503,0.627778 -1.527026,1.213139 -2.332957,1.756081 -0.4106,0.284197 -0.832229,0.549729 -1.269128,0.792356 z m -1.1809,5.744164 c 0.241779,-0.475075 0.371576,-1.005292 0.371576,-1.548235 0,-0.899249 -0.356306,-1.764564 -0.992567,-2.400825 -0.636261,-0.63626 -1.501576,-0.992566 -2.400824,-0.992566 -0.899249,0 -1.764564,0.356306 -2.400825,0.992566 -0.636261,0.636261 -0.992567,1.501576 -0.992567,2.400825 v 0 0 c 0,0.89925 0.356306,1.764564 0.992567,2.400824 0.636261,0.636262 1.501576,0.992568 2.400825,0.992568 0.128948,0 0.257897,-0.0076 0.384301,-0.02036 -0.339339,-0.07041 -0.659166,-0.225661 -0.926396,-0.463198 -0.404662,-0.359699 -0.671043,-0.91367 -0.671043,-1.588955 0,-0.387695 0.08823,-0.73467 0.238386,-1.028198 0.742304,1.399774 3.025208,0.560758 2.651087,-0.962026 0.246869,0.08823 0.479316,0.22057 0.681223,0.40042 0.405511,0.359699 0.671043,0.914519 0.671043,1.589804 0,0.07635 -0.0034,0.151854 -0.0068,0.227357 v 0 0 0 z M 8.0555007,26.065747 C 7.5719424,25.446453 7.1901858,24.750808 6.910231,24.012745 6.6726936,23.401935 6.5539249,22.765674 6.5454414,22.112446 c -0.00848,-0.373273 0.059384,-0.75503 0.2036035,-1.111336 0.1018018,-0.246021 0.2629879,-0.466591 0.4750748,-0.636261 0.3054053,-0.212087 0.6701949,-0.330855 1.0349844,-0.322372 0.3308557,0.0085 0.6532279,0.05938 0.9671166,0.152703 0.3817566,0.118769 0.7550296,0.288438 1.0943683,0.492042 0.856832,0.509008 1.603378,1.179203 2.197221,1.97665 0.483559,0.627778 0.865315,1.323423 1.14527,2.061485 0.229054,0.602327 0.356306,1.247072 0.36479,1.891816 0.0085,0.381757 -0.06787,0.75503 -0.203604,1.111336 -0.101801,0.254504 -0.271471,0.466591 -0.483558,0.636261 -0.296922,0.22057 -0.661711,0.330856 -1.034985,0.322372 -0.322372,0 -0.644744,-0.0509 -0.958633,-0.152703 -0.184939,-0.05769 -0.369031,-0.125555 -0.552274,-0.193423 C 10.609028,28.249395 10.42324,28.155228 10.244238,28.050881 9.3958903,27.533389 8.6493442,26.863194 8.0555007,26.065747 v 0 z M 36.263068,8.6237153 c 0.0085,-0.00848 0.0085,-0.016967 0.01697,-0.016967 0.0085,-0.00848 0.0085,-0.00848 0.0085,-0.016967 l 0.04242,-0.033934 -0.135735,0.1527026 c 0.02545,-0.033934 0.04242,-0.059384 0.06787,-0.084835 v 0 0 0 z"
     fill-rule="evenodd"
     fill="url(#_lgradient_8)"
     id="path342"
     style="fill:url(#_lgradient_8);stroke-width:0.848348" />
</svg>
