<?xml version="1.0" encoding="UTF-8" standalone="no"?>
<!-- Generator: Gravit.io -->

<svg
   style="isolation:isolate"
   viewBox="0 0 48 48"
   width="48pt"
   height="48pt"
   version="1.1"
   id="svg506"
   sodipodi:docname="inkscape.svg"
   inkscape:version="1.2.2 (b0a8486541, 2022-12-01)"
   xmlns:inkscape="http://www.inkscape.org/namespaces/inkscape"
   xmlns:sodipodi="http://sodipodi.sourceforge.net/DTD/sodipodi-0.dtd"
   xmlns="http://www.w3.org/2000/svg"
   xmlns:svg="http://www.w3.org/2000/svg">
  <defs
     id="defs510" />
  <sodipodi:namedview
     id="namedview508"
     pagecolor="#ffffff"
     bordercolor="#000000"
     borderopacity="0.25"
     inkscape:showpageshadow="2"
     inkscape:pageopacity="0.0"
     inkscape:pagecheckerboard="0"
     inkscape:deskcolor="#d1d1d1"
     inkscape:document-units="pt"
     showgrid="false"
     inkscape:zoom="5.788976"
     inkscape:cx="-33.339229"
     inkscape:cy="48.281423"
     inkscape:window-width="1920"
     inkscape:window-height="1056"
     inkscape:window-x="0"
     inkscape:window-y="0"
     inkscape:window-maximized="1"
     inkscape:current-layer="svg506" />
  <linearGradient
     id="_lgradient_7"
     x1="0.4959526317439561"
     y1="0.9568326271186427"
     x2="0.47537279315389"
     y2="-0.04907443981616"
     gradientTransform="matrix(38.999575,0,0,39.735353,4.500271,4.1324826)"
     gradientUnits="userSpaceOnUse">
    <stop
       offset="0%"
       stop-opacity="1"
       style="stop-color:rgb(248,171,149)"
       id="stop497" />
    <stop
       offset="48.75%"
       stop-opacity="1"
       style="stop-color:rgb(241,125,173)"
       id="stop499" />
    <stop
       offset="98.33333333333333%"
       stop-opacity="1"
       style="stop-color:rgb(238,115,200)"
       id="stop501" />
  </linearGradient>
  <path
     d="m 20.21594,32.014578 v 0 c 0.773661,0.55057 0.954658,1.623088 0.404088,2.394223 v 0 c -0.55057,0.771135 -1.625614,0.950449 -2.398433,0.399879 v 0 L 5.4212556,25.112244 C 4.2864409,24.252714 4.1862607,22.741592 5.1973233,21.73979 L 22.217861,4.8825716 c 1.011062,-1.0018024 2.651829,-1.0001187 3.660366,0.00421 l 16.92625,16.8488004 c 1.008537,1.003486 0.908357,2.519659 -0.22309,3.382556 l -12.711104,9.690543 v 0 c -0.768609,0.55057 -1.841127,0.371256 -2.394223,-0.399879 v 0 c -0.552254,-0.771135 -0.373782,-1.843653 0.399879,-2.394223 v 0 L 39.405084,23.287953 24.05057,7.9334385 8.5234754,23.55482 Z m 9.895113,4.616709 v 0 c 0.845218,-0.422609 1.875643,-0.07745 2.299936,0.769451 v 0 c 0.425134,0.846902 0.07998,1.881537 -0.769452,2.308355 v 0 l -6.176658,3.786644 c -0.809019,0.49585 -2.123148,0.49585 -2.932166,0 l -6.176659,-3.786644 v 0 C 15.506627,39.282275 15.161468,38.24764 15.586603,37.400738 v 0 c 0.424293,-0.846901 1.454718,-1.19206 2.299094,-0.769451 v 0 l 4.664695,2.985202 c 0.799758,0.511004 2.09705,0.511004 2.896808,0 z m -5.638716,-18.61837 3.683097,3.483578 1.573418,1.488392 c 0.489116,0.463018 -0.314852,0.590979 -0.603606,0.63223 -0.984124,0.138064 -1.580154,-1.470713 -2.573538,-1.504387 -1.357905,-0.0463 -2.623207,1.871434 -3.651106,1.81503 -0.930245,-0.05135 -0.846902,-1.887429 -1.662656,-1.809137 -0.626336,0.05977 -0.174263,1.397472 -0.989174,1.607935 -0.32748,0.06819 -2.815149,-0.180998 -1.950568,-0.809861 0.03873,-0.03704 0.07913,-0.07577 0.120385,-0.115333 0.416716,-0.397354 0.974021,-0.896571 1.40589,-1.304869 l 3.682255,-3.483578 c 0.133012,-0.125436 0.305592,-0.197835 0.479013,-0.197835 0.175947,-0.0017 0.351894,0.06987 0.48659,0.197835 z m -8.384833,2.262053 c 0.249188,-0.232351 0.498376,-0.464702 0.748405,-0.696211 0.214672,-0.197835 0.420926,-0.387251 0.627179,-0.585086 l 3.671311,-3.473476 c 0.755982,-0.721466 1.753575,-1.125554 2.802521,-1.143233 0.0084,0 0.0261,0 0.03452,0 h 0.0084 c 0.01684,0 0.03452,0 0.05135,0 1.048946,0.0084 2.054958,0.421767 2.811781,1.143233 l 3.67973,3.481895 1.495968,1.418518 c 0.773661,0.679374 1.245939,1.642451 1.298134,2.673718 0.05135,1.195428 -0.499217,2.347079 -1.461453,3.069387 -0.370414,0.275286 -0.782921,0.489957 -1.221525,0.628021 -0.361154,0.111966 -0.730726,0.197835 -1.108717,0.240769 -0.05135,0.0084 -0.103548,0.0084 -0.154901,0.01684 l -0.120385,0.0084 c -0.137221,0.0093 -0.266024,0.0093 -0.395669,0 -0.92772,-0.03367 -1.822607,-0.361154 -2.561752,-0.919301 -0.01684,-0.01768 -0.03452,-0.0261 -0.05135,-0.04293 -0.223932,0.171738 -0.464701,0.326639 -0.69621,0.480697 -0.722308,0.464702 -1.538903,0.731568 -2.390015,0.782921 -0.103547,0.0084 -0.206253,0.0084 -0.301382,0.0084 h -0.04293 c -0.08587,-0.0084 -0.171738,-0.0084 -0.257607,-0.01684 -0.438604,-0.04293 -0.86879,-0.163319 -1.281297,-0.344317 -0.09429,0.03452 -0.189416,0.06061 -0.283703,0.07745 -0.326638,0.06903 -0.653276,0.103548 -0.979914,0.09429 -0.610342,-0.0084 -1.229102,-0.07745 -1.831026,-0.214671 -0.438604,-0.09429 -0.877208,-0.232351 -1.281296,-0.430186 -0.412507,-0.188575 -0.790498,-0.447023 -1.117978,-0.764401 -0.755982,-0.739986 -1.151652,-1.762835 -1.091039,-2.820199 0.06819,-1.048946 0.584245,-2.012024 1.40084,-2.673718 z"
     fill-rule="evenodd"
     fill="url(#_lgradient_7)"
     id="path504"
     style="fill:url(#_lgradient_7);stroke-width:0.841851" />
</svg>
